#!OML:ASF E:\emotionWalksFemale\Project 1\Capture day 1\Session 1\Female1.ASF
:FULLY-SPECIFIED
:DEGREES
416
root 9.00396 15.3406 -0.440729 180.084 -5.99857 -183.841
lowerback 5.29867 -0.0729295 -4.6515
upperback -4.81304 -0.776755 -1.18703
thorax -8.01118 -0.226294 1.4618
lowerneck -7.68842 -3.78907 -7.36284
upperneck 17.2695 -6.11183 7.07188
head 6.96285 -3.13112 2.95516
rclavicle -2.54693e-015 1.43125e-014
rhumerus -47.9811 7.88949 -87.434
rradius 36.173
rwrist 11.7754
rhand 1.03429 -53.0137
rfingers 7.12502
rthumb 26.5807 -81.1683
lclavicle -2.54693e-015 1.43125e-014
lhumerus -37.2191 -13.1501 94.7634
lradius 42.0979
lwrist -5.77744
lhand -9.20445 -35.402
lfingers 7.12502
lthumb 16.7496 -6.10453
rfemur -28.6255 33.6666 6.84199
rtibia 17.0056
rfoot -29.5045 -46.6272
rtoes 4.28808
lfemur 16.2405 -15.2538 -35.6555
ltibia 11.7603
lfoot -15.2015 10.8603
ltoes -15.7487
417
root 9.02146 15.3393 -0.564384 180.202 -6.16175 -183.877
lowerback 5.35749 -0.0483811 -4.59306
upperback -4.87545 -0.751154 -1.22057
thorax -8.11558 -0.216912 1.39134
lowerneck -7.87626 -3.7803 -7.4099
upperneck 17.3232 -6.08642 7.13229
head 7.01481 -3.10978 2.982
rclavicle -2.73329e-016 -3.01159e-014
rhumerus -47.7752 7.65764 -87.2217
rradius 35.953
rwrist 11.9873
rhand 0.5879 -52.6649
rfingers 7.12502
rthumb 26.1534 -80.8835
lclavicle -2.73329e-016 -3.01159e-014
lhumerus -37.598 -12.7145 94.9361
lradius 41.4141
lwrist -6.9106
lhand -8.5942 -35.3609
lfingers 7.12502
lthumb 17.337 -6.1141
rfemur -28.2519 33.166 7.13911
rtibia 17.2244
rfoot -30.6897 -44.7668
rtoes 8.62904
lfemur 16.8109 -15.0402 -35.5012
ltibia 11.2945
lfoot -14.7565 10.2477
ltoes -14.952
418
root 9.03941 15.3446 -0.691119 180.31 -6.25427 -183.933
lowerback 5.36207 0.00247459 -4.62859
upperback -4.93946 -0.694099 -1.22621
thorax -8.19133 -0.186672 1.39852
lowerneck -7.94304 -3.71814 -7.71481
upperneck 17.3231 -6.0102 7.47089
head 7.03929 -3.06331 3.14974
rclavicle -2.88238e-015 -6.55989e-015
rhumerus -47.7091 7.44562 -87.0436
rradius 35.8925
rwrist 12.178
rhand 0.657814 -53.3247
rfingers 7.12502
rthumb 26.2203 -81.5334
lclavicle -2.88238e-015 -6.55989e-015
lhumerus -38.0966 -12.3802 95.1623
lradius 40.8377
lwrist -7.90007
lhand -8.05092 -35.3399
lfingers 7.12502
lthumb 17.8598 -6.14004
rfemur -27.5844 31.4014 8.13689
rtibia 17.509
rfoot -28.4727 -43.3586
rtoes 6.51839
lfemur 17.3896 -14.9698 -35.4428
ltibia 10.8847
lfoot -14.2914 9.66928
ltoes -12.9052
419
root 9.05881 15.3431 -0.820905 180.464 -6.44028 -183.947
lowerback 5.30784 -0.0240715 -4.6774
upperback -5.04164 -0.740035 -1.19757
thorax -8.26759 -0.205371 1.46161
lowerneck -7.77355 -3.65934 -7.99422
upperneck 17.1751 -5.94669 7.78607
head 6.97317 -3.0296 3.30817
rclavicle -5.2181e-016 2.68359e-015
rhumerus -47.6695 7.34514 -86.9043
rradius 35.7765
rwrist 12.4424
rhand 0.701062 -53.7045
rfingers 7.12502
rthumb 26.2617 -81.9071
lclavicle -5.2181e-016 2.68359e-015
lhumerus -38.6222 -11.9828 95.3334
lradius 40.2077
lwrist -8.64164
lhand -7.59656 -35.2229
lfingers 7.12502
lthumb 18.297 -6.06347
rfemur -27.0242 29.9007 9.01608
rtibia 17.7724
rfoot -26.985 -42.3601
rtoes 4.63683
lfemur 17.8772 -14.9752 -35.3392
ltibia 10.5798
lfoot -13.6845 9.25793
ltoes -13.5841
420
root 9.07926 15.3344 -0.952868 180.661 -6.66844 -183.889
lowerback 5.1855 -0.124658 -4.68645
upperback -5.14606 -0.875073 -1.13614
thorax -8.30024 -0.269695 1.54738
lowerneck -7.85979 -3.66662 -8.03354
upperneck 17.2134 -5.96412 7.86925
head 7.00579 -3.03245 3.33902
rclavicle 4.19933e-015 -3.67752e-015
rhumerus -47.4578 7.41432 -86.7764
rradius 35.5355
rwrist 12.6682
rhand 1.00021 -53.6962
rfingers 7.12502
rthumb 26.5481 -81.8557
lclavicle 4.19933e-015 -3.67752e-015
lhumerus -38.9554 -11.2682 95.3167
lradius 39.3046
lwrist -9.51562
lhand -7.20547 -34.9991
lfingers 7.12502
lthumb 18.6732 -5.87536
rfemur -26.6298 29.1207 9.59195
rtibia 17.9897
rfoot -26.7309 -41.4936
rtoes 4.7664
lfemur 18.2723 -14.895 -35.095
ltibia 10.3836
lfoot -13.1238 8.84873
ltoes -14.1503
421
root 9.09861 15.3272 -1.09109 180.743 -6.82698 -183.791
lowerback 5.00965 -0.173265 -4.6679
upperback -5.18205 -0.92793 -1.08008
thorax -8.2319 -0.297023 1.60091
lowerneck -8.05953 -3.65136 -7.67277
upperneck 17.498 -5.92261 7.40665
head 7.10594 -3.02407 3.1283
rclavicle 1.21631e-014 -1.04362e-014
rhumerus -47.2166 7.39271 -86.617
rradius 35.3763
rwrist 12.6521
rhand 1.5317 -54.0344
rfingers 7.12502
rthumb 27.0566 -82.116
lclavicle 1.21631e-014 -1.04362e-014
lhumerus -39.3234 -10.7059 95.2948
lradius 38.4375
lwrist -10.3594
lhand -6.8109 -34.7127
lfingers 7.12502
lthumb 19.0527 -5.62586
rfemur -26.0819 28.3042 10.351
rtibia 18.1924
rfoot -25.6623 -41.0167
rtoes 2.72082
lfemur 18.7657 -14.7443 -34.8536
ltibia 10.2947
lfoot -12.166 8.50751
ltoes -16.302
422
root 9.11629 15.3242 -1.23798 180.731 -6.88476 -183.783
lowerback 4.79481 -0.161396 -4.73011
upperback -5.17551 -0.902278 -1.03822
thorax -8.09937 -0.283086 1.67452
lowerneck -8.05033 -3.59836 -7.70887
upperneck 17.4508 -5.84706 7.46487
head 7.08545 -2.9841 3.16082
rclavicle -1.06101e-014 3.97569e-016
rhumerus -47.1497 7.3663 -86.499
rradius 35.2658
rwrist 12.4318
rhand 1.11005 -54.2191
rfingers 7.12502
rthumb 26.6532 -82.3628
lclavicle -1.06101e-014 3.97569e-016
lhumerus -39.8822 -10.2243 95.3477
lradius 37.822
lwrist -10.9959
lhand -6.44775 -34.5261
lfingers 7.12502
lthumb 19.4019 -5.47403
rfemur -25.5597 28.1285 10.883
rtibia 18.4606
rfoot -25.258 -41.1153
rtoes 2.06357
lfemur 19.4058 -14.525 -34.7622
ltibia 10.1467
lfoot -11.0165 8.37091
ltoes -22.2683
423
root 9.13761 15.3284 -1.38153 180.833 -7.08989 -183.822
lowerback 4.68085 -0.206194 -4.81618
upperback -5.24174 -0.969977 -1.01298
thorax -8.09947 -0.312137 1.75626
lowerneck -8.17959 -3.53456 -7.88694
upperneck 17.5619 -5.77477 7.68125
head 7.14915 -2.9425 3.26685
rclavicle 1.65861e-015 2.27608e-014
rhumerus -47.2567 7.32419 -86.4198
rradius 35.2311
rwrist 12.4231
rhand 0.550608 -54.2365
rfingers 7.12502
rthumb 26.1177 -82.4604
lclavicle 1.65861e-015 2.27608e-014
lhumerus -40.5076 -9.49312 95.2704
lradius 37.2572
lwrist -11.7594
lhand -6.12881 -34.4906
lfingers 7.12502
lthumb 19.7085 -5.46967
rfemur -25.3022 28.8265 10.9576
rtibia 18.6989
rfoot -26.311 -41.6347
rtoes 5.69228
lfemur 19.794 -14.4077 -34.6083
ltibia 10.2134
lfoot -10.7797 7.99424
ltoes -21.2934
424
root 9.15634 15.334 -1.53277 180.838 -7.2779 -183.604
lowerback 4.555 -0.207091 -4.53254
upperback -5.28922 -0.941918 -0.990776
thorax -8.07964 -0.315235 1.61666
lowerneck -8.40735 -3.58769 -7.9075
upperneck 17.8433 -5.878 7.75528
head 7.2922 -2.98773 3.2818
rclavicle -1.43746e-014 -1.23743e-014
rhumerus -47.3986 6.96939 -86.2254
rradius 35.1859
rwrist 12.912
rhand 0.618798 -54.1396
rfingers 7.12502
rthumb 26.1829 -82.3539
lclavicle -1.43746e-014 -1.23743e-014
lhumerus -41.0764 -8.76319 95.0719
lradius 36.5896
lwrist -12.7667
lhand -5.33958 -34.4783
lfingers 7.12502
lthumb 20.4671 -5.53705
rfemur -25.0682 30.0239 11.2039
rtibia 18.9886
rfoot -27.7519 -42.2843
rtoes 11.3326
lfemur 20.298 -14.3253 -34.224
ltibia 10.2897
lfoot -10.7446 7.6291
ltoes -14.6424
425
root 9.18652 15.3557 -1.6648 181.196 -8.14051 -183.205
lowerback 4.50705 -0.422647 -4.20627
upperback -5.54365 -1.21874 -0.894975
thorax -8.31206 -0.465348 1.56808
lowerneck -8.83299 -3.73232 -7.88498
upperneck 18.3828 -6.11345 7.72715
head 7.56303 -3.10126 3.23961
rclavicle -6.78353e-015 -1.16289e-014
rhumerus -47.4655 6.65139 -86.0488
rradius 35.037
rwrist 13.188
rhand 0.772409 -53.9917
rfingers 7.12502
rthumb 26.33 -82.1841
lclavicle -6.78353e-015 -1.16289e-014
lhumerus -41.6838 -8.26031 94.9225
lradius 35.8987
lwrist -13.6081
lhand -4.35821 -34.3817
lfingers 7.12502
lthumb 21.4099 -5.54462
rfemur -25.2176 31.5024 11.1704
rtibia 19.177
rfoot -30.0309 -43.4281
rtoes 18.2037
lfemur 20.0761 -14.521 -33.2859
ltibia 10.7179
lfoot -10.1136 6.85187
ltoes -14.1729
426
root 9.20428 15.3672 -1.82557 181.051 -8.27492 -182.772
lowerback 4.31443 -0.437144 -3.844
upperback -5.56432 -1.18478 -0.745225
thorax -8.22301 -0.466204 1.51642
lowerneck -8.75641 -3.68011 -7.99409
upperneck 18.6703 -6.07305 7.69891
head 7.6419 -3.10514 3.25434
rclavicle 7.8023e-015 4.82053e-015
rhumerus -47.5388 6.67442 -85.9696
rradius 34.8628
rwrist 12.8423
rhand 0.606851 -54.0449
rfingers 7.12502
rthumb 26.1715 -82.2608
lclavicle 7.8023e-015 4.82053e-015
lhumerus -42.4017 -7.63082 94.7478
lradius 35.266
lwrist -14.4231
lhand -4.38903 -34.9136
lfingers 7.12502
lthumb 21.3803 -6.07322
rfemur -24.5657 32.5785 11.8967
rtibia 19.2341
rfoot -30.769 -43.9897
rtoes 21.7144
lfemur 20.2859 -14.2494 -32.6404
ltibia 11.5436
lfoot -9.90281 6.33924
ltoes -16.4692
427
root 9.22553 15.3823 -1.9755 180.934 -8.5483 -182.408
lowerback 4.30491 -0.478531 -3.54552
upperback -5.63467 -1.20917 -0.624723
thorax -8.29291 -0.490351 1.4796
lowerneck -8.73832 -3.69014 -7.95389
upperneck 18.95 -6.10181 7.51279
head 7.7261 -3.14193 3.18336
rclavicle 4.83295e-015 1.14301e-015
rhumerus -47.6913 6.69021 -85.8828
rradius 34.6947
rwrist 12.4903
rhand 0.25989 -54.1277
rfingers 7.12502
rthumb 25.8393 -82.3924
lclavicle 4.83295e-015 1.14301e-015
lhumerus -43.0643 -6.89932 94.4654
lradius 34.6441
lwrist -15.1506
lhand -4.30677 -35.4944
lfingers 7.12502
lthumb 21.4593 -6.66297
rfemur -23.7217 32.9694 12.7515
rtibia 19.0838
rfoot -31.3507 -44.1352
rtoes 23.4923
lfemur 20.1574 -14.1419 -32.0289
ltibia 12.8661
lfoot -9.42882 5.68603
ltoes -15.0441
428
root 9.24318 15.3879 -2.13131 180.697 -8.55995 -181.945
lowerback 4.22913 -0.43352 -3.08439
upperback -5.60504 -1.09205 -0.51792
thorax -8.22394 -0.456283 1.31912
lowerneck -8.89552 -3.70501 -7.87823
upperneck 19.2146 -6.13676 7.4142
head 7.83936 -3.16395 3.13209
rclavicle 1.84746e-014 3.67752e-015
rhumerus -47.6823 6.49476 -85.7198
rradius 34.3986
rwrist 12.7392
rhand -0.0159558 -53.8435
rfingers 7.12502
rthumb 25.5751 -82.1464
lclavicle 1.84746e-014 3.67752e-015
lhumerus -43.6239 -6.21866 94.0666
lradius 34.2289
lwrist -15.4937
lhand -1.8078 -34.2562
lfingers 7.12502
lthumb 23.8577 -5.71783
rfemur -22.7318 32.9975 13.8984
rtibia 18.8684
rfoot -30.6857 -44.1313
rtoes 22.8095
lfemur 20.13 -13.9147 -31.4461
ltibia 14.3079
lfoot -8.47631 5.37417
ltoes -11.9789
429
root 9.27009 15.4038 -2.27392 180.603 -8.94976 -181.466
lowerback 4.27544 -0.525665 -2.77025
upperback -5.60281 -1.17284 -0.346759
thorax -8.24489 -0.506037 1.33292
lowerneck -9.2391 -3.7556 -8.0262
upperneck 19.4922 -6.21216 7.54915
head 8.00893 -3.19316 3.18934
rclavicle 1.97791e-014 -1.63997e-015
rhumerus -47.4567 6.23671 -85.4874
rradius 33.9705
rwrist 13.2697
rhand 0.0326985 -53.5698
rfingers 7.12502
rthumb 25.6217 -81.8661
lclavicle 1.97791e-014 -1.63997e-015
lhumerus -44.135 -5.44665 93.5616
lradius 33.9318
lwrist -15.8981
lhand -0.34894 -34.1325
lfingers 7.12502
lthumb 25.2561 -5.78414
rfemur -21.7865 32.8026 14.9718
rtibia 18.4633
rfoot -28.8282 -44.7298
rtoes 20.103
lfemur 19.6212 -13.6823 -30.5331
ltibia 16.0457
lfoot -7.71752 4.76176
ltoes -11.2335
430
root 9.29298 15.4266 -2.42303 180.438 -9.25886 -180.999
lowerback 4.31548 -0.58051 -2.40614
upperback -5.62482 -1.20507 -0.20614
thorax -8.29252 -0.537138 1.28154
lowerneck -9.56 -3.94746 -8.09453
upperneck 19.8863 -6.4998 7.56056
head 8.22664 -3.33434 3.16865
rclavicle -3.21783e-015 -3.27995e-015
rhumerus -47.3778 6.05317 -85.3311
rradius 33.5918
rwrist 13.4909
rhand 0.363666 -53.816
rfingers 7.12502
rthumb 25.9387 -82.0662
lclavicle -3.21783e-015 -3.27995e-015
lhumerus -44.5981 -4.83371 93.0749
lradius 33.3705
lwrist -16.2536
lhand 1.19501 -33.906
lfingers 7.12502
lthumb 26.7345 -5.77473
rfemur -20.6317 32.0105 16.2413
rtibia 17.9995
rfoot -26.3901 -44.7648
rtoes 17.4332
lfemur 19.0766 -13.3332 -29.6407
ltibia 17.8384
lfoot -6.99085 4.09956
ltoes -11.5335
